#N canvas 1316 0 595 980 12;
#N canvas 739 204 401 622 output 0;
#X obj 150 341 nbx 5 17 -100 0 0 0 \$0-vol \$0-vol Volume 0 -8 0 12 #fcfcfc #000000 #000000 0 256;
#X obj 221 339 tgl 19 0 \$0-dsp \$0-dsp DSP 23 11 0 12 #fcfcfc #000000 #000000 0 1;
#X obj 22 -4 inlet~;
#X obj 109 -4 inlet~;
#X obj 21 556 dac~;
#X obj 22 522 *~;
#X obj 109 519 *~;
#X obj 126 486 line~;
#X msg 126 460 \$1 50;
#X obj 167 57 loadbang;
#X msg 215 408 \; pd dsp \$1;
#X obj 30 76 env~;
#X obj 116 75 env~;
#X obj 30 101 - 100;
#X obj 117 104 - 100;
#X obj 215 381 r \$0-dsp;
#X msg 167 82 0;
#X obj 167 108 s \$0-fader;
#X obj 126 380 r \$0-fader;
#X obj 126 408 pow 2;
#X obj 186 462 rmstodb;
#X obj 186 487 - 100;
#X obj 186 512 s \$0-vol;
#X obj 126 433 t f f;
#X obj 21 22 clip~ -1 1;
#X obj 108 22 clip~ -1 1;
#X obj 21 47 hip~ 5;
#X obj 108 47 hip~ 5;
#X obj 153 155 vsl 19 160 0 1 0 0 \$0-fader \$0-fader empty 0 -9 0 12 #fcfcfc #000000 #000000 0 1;
#X obj 190 155 vu 19 160 empty empty -1 -10 0 12 #404040 #000000 1 0;
#X obj 254 155 vu 19 160 empty empty -1 -10 0 12 #404040 #000000 1 0;
#X connect 2 0 24 0;
#X connect 3 0 25 0;
#X connect 5 0 4 0;
#X connect 6 0 4 1;
#X connect 7 0 5 1;
#X connect 7 0 6 1;
#X connect 8 0 7 0;
#X connect 9 0 16 0;
#X connect 11 0 13 0;
#X connect 12 0 14 0;
#X connect 13 0 29 0;
#X connect 14 0 30 0;
#X connect 15 0 10 0;
#X connect 16 0 17 0;
#X connect 18 0 19 0;
#X connect 19 0 23 0;
#X connect 20 0 21 0;
#X connect 21 0 22 0;
#X connect 23 0 8 0;
#X connect 23 1 20 0;
#X connect 24 0 26 0;
#X connect 25 0 27 0;
#X connect 26 0 11 0;
#X connect 26 0 5 0;
#X connect 27 0 12 0;
#X connect 27 0 6 0;
#X coords 0 -1 1 1 180 230 2 140 140;
#X restore 20 613 pd output;
#X msg 370 374 close;
#X text 421 375 close the plugin;
#X obj 21 402 vstplugin~;
#X msg 378 405 print;
#N canvas 277 61 1195 627 open 0;
#X obj 533 431 bng 19 250 50 0 empty empty empty 17 7 0 10 #fcfcfc #000000 #000000;
#X obj 533 458 openpanel;
#X obj 528 28 bng 19 250 50 0 empty empty empty 17 7 0 10 #fcfcfc #000000 #000000;
#X obj 528 53 openpanel;
#X msg 528 108 open -e \$1;
#X obj 617 63 cnv 20 330 60 empty empty empty 20 12 0 14 #f8fc00 #404040 0;
#X symbolatom 528 268 16 0 0 0 - - - 0;
#X obj 527 219 s \$0-msg;
#X msg 527 192 search -a;
#X text 182 511 on success and;
#X text 32 510 outputs;
#X msg 289 511 open 0;
#X msg 89 510 open 1 <key>;
#X obj 528 320 pack s f;
#X obj 581 295 tgl 19 0 empty empty async 24 10 0 12 #fcfcfc #000000 #000000 0 1;
#X msg 528 348 open \$1 \$2;
#X obj 533 511 pack s f;
#X msg 533 541 open \$1 \$2;
#X symbolatom 538 81 10 0 0 0 - - - 0;
#X text 32 447 async:;
#X text 60 464 0: load synchronously (default);
#X text 525 168 1) search;
#X text 29 59 -e: use the VST editor;
#X text 33 410 key/path: plugin key or file path (see below);
#X text 60 480 1: load asynchronously;
#X obj 28 29 cnv 20 300 20 empty empty empty 20 12 0 14 #dcdcdc #404040 0;
#X text 30 140 -t: process plugin in a seperate thread to utilize more CPU cores., f 67;
#X text 55 234 This makes sure that the plugin can safely crash without taking down the whole Pd process. Use this for buggy plugins or safe experimentation., f 57;
#X text 56 284 NOTE: switching between processes incurs some fixed CPU overhead \, which is less significant for higher blocksizes.;
#X text 30 213 -p: run plugin in a dedicated subprocess (= sandbox).;
#X text 29 331 -b: run plugin in a shared subprocess.;
#X text 54 349 This uses less memory and possibly less CPU \, but if one plugin crashes \, it will inevitably take down all other plugins in the same process., f 57;
#X text 34 31 arguments: [flags...] key/path [async];
#X text 658 175 a) by key:;
#X text 677 361 Both absolute and relative paths are allowed. Relative paths are searched like abstractions. If that fails \, the standard VST search paths are searched *recursively* (see [pd search]), f 67;
#X text 677 414 For VST2 plug-ins the extension (.dll \, .so \, .vst) can be omitted \, but for VST3 plug-ins the '.vst3' extension is mandatory., f 66;
#X text 676 456 NOTE: Opening by file path doesn't work if the module contains several plug-ins (VST2 shell plug-ins or certain VST3 plug-ins)!, f 65;
#X text 675 490 Also \, file names may differ between platforms \, while keys are always platform independent., f 63;
#X text 619 26 By default \, a generic Pd editor is created \, use the -e flag to enable the VST editor., f 45;
#X text 673 271 Generally \, keys can only be used after a search (see the 'search' method). Search results are cached in a file \, so you only need to search once in the beginning and everytime you install a new plug-in., f 70;
#X text 55 78 If omitted \, a generic Pd editor is created.;
#X text 55 97 NOTE: some (buggy) plugins don't work correctly without the VST editor., f 56;
#X text 343 511 on failure.;
#X text 525 247 2a) open by key;
#X obj 586 484 tgl 19 0 empty empty async 24 10 0 12 #fcfcfc #000000 #000000 0 1;
#X text 528 404 2b) open by path;
#X text 673 197 The key is simply the plugin name. VST3 plug-in keys get a '.vst3' extension to distinguish them from VST2 plugins of the same name., f 67;
#X obj 528 135 s \$0-msg;
#X obj 528 376 s \$0-msg;
#X text 656 151 Plug-ins can be opened in two ways:;
#X text 658 335 b) by file path:;
#X obj 533 569 s \$0-msg;
#X obj 43 570 outlet;
#X obj 669 233 cnv 15 45 20 empty empty empty 20 12 0 14 #f8fc00 #404040 0;
#X text 673 234 NOTE: if a plugin name contains whitespace \, you may need to escape it with backslashes \, e.g. when typed in a message box., f 66;
#X text 628 69 WARNING: on macOS \, the VST editor might run on the audio thread! See the README for more information., f 41;
#X obj 53 158 cnv 15 45 20 empty empty empty 20 12 0 14 #f8fc00 #404040 0;
#X text 57 159 NOTE: this introduces a delay of 1 block.;
#X text 55 181 See als the "num_threads" method in [pd more].;
#X connect 0 0 1 0;
#X connect 1 0 16 0;
#X connect 2 0 3 0;
#X connect 3 0 4 0;
#X connect 4 0 47 0;
#X connect 6 0 13 0;
#X connect 8 0 7 0;
#X connect 13 0 15 0;
#X connect 14 0 13 1;
#X connect 15 0 48 0;
#X connect 16 0 17 0;
#X connect 17 0 51 0;
#X connect 18 0 4 0;
#X connect 44 0 16 1;
#X restore 361 344 pd open;
#X text 424 345 open a plugin;
#X text 427 397 print plugin info to the console, f 18;
#X obj 21 193 netreceive -u -b;
#X obj 21 217 oscparse;
#X obj 21 241 list trim;
#X obj 21 277 route note_on;
#X obj 182 433 print;
#X obj 21 330 list trim;
#X obj 21 305 list prepend midi_note 1;
#X obj 228 290 route note_off;
#X obj 228 314 list prepend midi_noteoff 1;
#X obj 228 338 list trim;
#X msg 56 363 open -e LABS.vst3;
#X msg 21 163 listen 56120;
#X obj 20 557 +~;
#X obj 21 494 *~ 1;
#X obj 109 490 *~ 1;
#X connect 1 0 3 0;
#X connect 3 0 21 0;
#X connect 3 1 22 0;
#X connect 4 0 3 0;
#X connect 5 0 3 0;
#X connect 8 0 9 0;
#X connect 9 0 10 0;
#X connect 10 0 11 0;
#X connect 10 0 15 0;
#X connect 11 0 14 0;
#X connect 13 0 3 0;
#X connect 13 0 12 0;
#X connect 14 0 13 0;
#X connect 15 0 16 0;
#X connect 16 0 17 0;
#X connect 17 0 3 0;
#X connect 17 0 12 0;
#X connect 18 0 3 0;
#X connect 19 0 8 0;
#X connect 20 0 0 0;
#X connect 20 0 0 1;
#X connect 21 0 20 0;
#X connect 22 0 20 1;
